<?xml version="1.0" encoding="UTF-8"?>
<svg id="Layer_1" data-name="Layer 1" xmlns="http://www.w3.org/2000/svg" viewBox="0 0 1545.61 1545.61">
  <defs>
    <style>
      .cls-1 {
        fill: #fff;
      }

      .cls-2 {
        fill: #fffbd6;
      }

      .cls-3 {
        fill: #231f20;
      }

      .cls-4 {
        fill: #a35e4e;
      }
    </style>
  </defs>
  <g>
    <circle class="cls-1" cx="772.81" cy="772.81" r="754.2"/>
    <path class="cls-3" d="M772.81,1545.61C346.68,1545.61,0,1198.94,0,772.81S346.68,0,772.81,0s772.81,346.68,772.81,772.81-346.68,772.8-772.81,772.8ZM772.81,37.2C367.19,37.2,37.2,367.19,37.2,772.81s329.99,735.6,735.6,735.6,735.6-329.99,735.6-735.6S1178.42,37.2,772.81,37.2Z"/>
  </g>
  <circle class="cls-4" cx="772.81" cy="772.81" r="409"/>
  <g>
    <polygon class="cls-1" points="995.45 598.4 848.92 598.4 848.92 456.67 707.87 456.67 707.87 598.4 559.29 598.4 559.29 715.49 707.87 715.49 707.87 1077.01 848.92 1077.01 848.92 715.49 995.45 715.49 995.45 598.4"/>
    <path class="cls-2" d="M559.29,1000.72c57.18,0,108.09,26.7,141.05,68.29v-113.42c0-77.02-62.43-139.45-139.45-139.45h-10.73v184.81c3.02-.15,6.07-.23,9.13-.23Z"/>
    <path class="cls-2" d="M700.53,1088.95c-23.31-21.21-53.32-35.09-86.5-38.01v-29.58c35.84,12.28,66.22,36.34,86.5,67.59Z"/>
  </g>
  <path class="cls-4" d="M772.81,1321.41c-302.5,0-548.6-246.1-548.6-548.6S470.31,224.21,772.81,224.21s548.6,246.1,548.6,548.6-246.1,548.6-548.6,548.6ZM772.81,236.61c-295.66,0-536.2,240.54-536.2,536.2s240.54,536.2,536.2,536.2,536.2-240.54,536.2-536.2S1068.47,236.61,772.81,236.61Z"/>
  <g>
    <path d="M96.46,923.84l98.6-23,3.23,13.83-98.6,23-3.23-13.83Z"/>
    <path d="M131.47,851.69l-4.27-34.83,17.56-2.16c7.56-.93,14.34-.27,20.34,1.96s10.88,5.78,14.64,10.66c3.75,4.87,6.07,10.86,6.94,17.95.88,7.14.18,13.57-2.09,19.27s-5.89,10.35-10.84,13.96-10.99,5.84-18.08,6.71l-29.65,3.64c-7.55.93-14.32.27-20.31-1.96-5.98-2.24-10.85-5.79-14.6-10.66-3.75-4.87-6.07-10.85-6.94-17.95-.72-5.86-.13-11.34,1.77-16.46,1.9-5.12,4.88-9.59,8.95-13.41,4.07-3.82,9.03-6.67,14.87-8.56l1.87,15.28c-5.05,1.93-8.73,4.93-11.03,9-2.3,4.08-3.2,8.23-2.68,12.47.77,6.27,3.56,11.02,8.38,14.27,4.82,3.25,10.8,4.43,17.94,3.55l29.65-3.64c6.55-.8,11.55-3.38,15.01-7.73,3.46-4.35,4.8-9.71,4.03-16.07-.77-6.27-3.46-11.03-8.07-14.3s-10.62-4.45-18.04-3.54l-4.36.54,2.5,20.39-13.48,1.65Z"/>
    <path d="M180.83,792.05l-101.23-1.64.23-14.2,101.23,1.64-.23,14.2ZM180.94,784.95l-13.51-.22.94-57.92,13.51.22-.94,57.92Z"/>
    <path d="M183.38,713.6l-100.11-15.1,2.12-14.05,100.11,15.1-2.12,14.05ZM97.65,693.71l-13.36-2.02,8.67-57.49,13.36,2.02-8.67,57.49ZM141.37,700.3l-13.36-2.02,7.53-49.92,13.36,2.01-7.53,49.92ZM184.4,706.79l-13.36-2.01,8.67-57.49,13.36,2.01-8.67,57.49Z"/>
    <path d="M206.75,603.96c-1.41,4.72-3.18,9.02-5.32,12.91-2.14,3.89-4.64,7.39-7.5,10.48-2.86,3.09-6.11,5.82-9.72,8.17l-7.87-11.59c4.31-2.73,7.93-6.08,10.86-10.05,2.93-3.97,5.18-8.56,6.74-13.76,2.1-7.03,2.43-12.87.96-17.52-1.46-4.66-4.55-7.69-9.27-9.1l-.07-.02c-3.69-1.11-6.81-.97-9.35.39-2.54,1.37-4.77,3.51-6.68,6.4-1.91,2.89-3.74,6.13-5.49,9.72-1.72,3.46-3.55,6.92-5.51,10.38-1.96,3.46-4.3,6.48-7.04,9.05-2.73,2.57-6.07,4.3-10.02,5.18s-8.74.47-14.39-1.22l-.07-.02c-9.03-2.71-15.12-7.8-18.28-15.29-3.16-7.49-3.1-16.71.18-27.64,1.56-5.2,3.92-10.05,7.08-14.53,3.16-4.48,7.16-8.57,11.99-12.26l8.49,10.98c-3.86,2.86-7.01,5.93-9.45,9.2-2.43,3.27-4.2,6.75-5.31,10.44-1.99,6.63-2.2,12.17-.66,16.63s4.74,7.42,9.59,8.87l.07.02c3.65,1.1,6.75.86,9.3-.7s4.8-3.93,6.74-7.1,3.91-6.62,5.89-10.34c1.78-3.34,3.7-6.64,5.77-9.91,2.06-3.26,4.48-6.06,7.24-8.4,2.76-2.34,6.06-3.91,9.87-4.67,3.82-.77,8.37-.36,13.66,1.22l.13.04c8.94,2.68,14.92,7.87,17.95,15.56,3.03,7.69,2.85,17.18-.54,28.48Z"/>
    <path d="M135.14,501.39l93.55,38.73-5.43,13.12-93.55-38.72,5.43-13.13Z"/>
    <path d="M231.86,529.04l-71.17-81.11,5.78-10.65,106.79,15.51-7.31,13.47-85.17-14.31,58.39,63.63-7.31,13.47ZM220.55,503.33l-11.87-6.45,25.42-46.81,11.87,6.45-25.42,46.81Z"/>
    <path d="M301.65,413.43l-76.87-65.89,9.2-10.74,76.87,65.89-9.2,10.73ZM307.09,407.1l-9.99-8.57,17.85-20.83c4.9-5.71,7.27-10.69,7.12-14.94s-2-7.9-5.56-10.95l-.16-.14c-3.81-3.26-7.71-4.86-11.73-4.78s-8.01,2.45-12,7.1l-20.12,23.48-9.73-8.34,20.12-23.48c3.42-3.98,5.05-7.79,4.9-11.44-.15-3.64-2.04-7.02-5.67-10.13-3.84-3.29-7.68-4.63-11.52-4-3.84.62-7.69,3.19-11.56,7.7l-18.85,21.99-9.99-8.56,20.53-23.95c6.49-7.57,13.22-11.6,20.16-12.07,6.95-.47,13.59,2.02,19.93,7.45,3.84,3.29,6.39,7.44,7.65,12.43s.25,10.28-3,15.86c4.78-4.15,10.05-6.05,15.79-5.69s10.87,2.48,15.38,6.35l.16.14c6.28,5.38,9.6,11.74,9.96,19.09s-2.43,14.49-8.38,21.43l-21.3,24.85Z"/>
    <path d="M351.61,355.14l-38.38-100.85,9.14-7.96,94.66,51.81-11.55,10.06-74.82-43.14,32.51,80.02-11.55,10.06ZM349.98,327.1l-8.87-10.18,40.16-35,8.88,10.18-40.16,35Z"/>
    <path d="M451.65,277.14c-9.46,6.14-18.58,8.14-27.36,6.01-8.77-2.14-16.42-8.23-22.94-18.27l-35.18-54.2,11.92-7.74,35.45,54.62c4.02,6.19,8.69,9.97,14,11.34,5.31,1.36,10.81.2,16.5-3.49,5.72-3.72,9.05-8.28,9.99-13.71.94-5.42-.61-11.23-4.62-17.42l-35.45-54.61,11.92-7.73,35.18,54.2c6.52,10.05,8.96,19.52,7.32,28.42-1.64,8.9-7.21,16.43-16.71,22.6Z"/>
    <path d="M449.12,174.35l-5.8-12.2,64.52-30.68,5.8,12.2-64.52,30.68ZM512.64,241.29l-39.92-83.95,12.83-6.1,39.92,83.95-12.83,6.1Z"/>
    <path d="M541.01,119.68l34.84,95.06-13.34,4.89-34.85-95.06,13.34-4.89Z"/>
    <path d="M626.75,200.46c-4.77,1.2-9.37,1.89-13.81,2.05-4.44.16-8.72-.19-12.84-1.07s-8.12-2.26-12-4.15l5.91-12.7c4.55,2.29,9.29,3.68,14.2,4.17s10,.06,15.26-1.27c7.11-1.8,12.29-4.52,15.53-8.16,3.24-3.65,4.26-7.85,3.06-12.62l-.02-.07c-.94-3.74-2.66-6.35-5.14-7.82-2.48-1.48-5.45-2.29-8.91-2.45-3.46-.15-7.19-.06-11.17.27-3.85.3-7.76.5-11.74.6-3.97.09-7.77-.38-11.38-1.4-3.61-1.03-6.81-3.01-9.58-5.95s-4.89-7.27-6.33-12.98l-.02-.07c-2.31-9.14-1.06-16.98,3.75-23.54,4.81-6.55,12.75-11.23,23.82-14.03,5.27-1.33,10.63-1.79,16.1-1.37,5.47.42,11.02,1.76,16.67,4.01l-5.07,12.92c-4.44-1.85-8.69-2.98-12.74-3.39s-7.95-.15-11.69.8c-6.71,1.7-11.58,4.35-14.61,7.97s-3.93,7.88-2.69,12.78l.02.07c.93,3.69,2.72,6.23,5.37,7.62,2.65,1.39,5.83,2.1,9.55,2.14s7.69-.04,11.9-.24c3.78-.19,7.6-.23,11.46-.13,3.85.1,7.5.74,10.93,1.91,3.43,1.17,6.46,3.19,9.08,6.07s4.61,7,5.96,12.36l.03.13c2.29,9.05.91,16.85-4.14,23.38-5.05,6.55-13.29,11.26-24.72,14.15Z"/>
    <path d="M655.18,102.69l-1.62-13.41,70.93-8.56,1.62,13.41-70.93,8.56ZM694.11,186.36l-11.14-92.29,14.1-1.7,11.14,92.29-14.1,1.7Z"/>
    <path d="M731.58,180.51l38.96-100.62,12.12.19,35.68,101.84-15.32-.25-26.74-82.13-29.38,81.21-15.32-.25ZM749.14,158.58l.22-13.5,53.26.86-.22,13.51-53.26-.87Z"/>
    <path d="M866.58,187.34l22.18-98.72,12.57,2.83,31.15,87.22-2.03,1.4,17.55-78.13,13.72,3.08-22.18,98.72-12.71-2.85-31.27-86.04,2.03-1.4-17.3,76.98-13.72-3.08Z"/>
    <path d="M1006.99,120.54l-33.23,95.63-13.42-4.66,33.23-95.63,13.42,4.66Z"/>
    <path d="M995.09,223.32l43.39-91.47,12.83,6.09-43.39,91.48-12.83-6.09ZM1003.77,227.44l5.79-12.2,20.7,9.82c6.75,3.2,12.82,3.94,18.19,2.19,5.37-1.74,9.57-5.8,12.6-12.18l12.77-26.93c3.02-6.37,3.51-12.19,1.46-17.46-2.05-5.26-6.45-9.49-13.21-12.7l-20.7-9.82,5.79-12.21,20.32,9.64c11.07,5.25,18.28,12.18,21.63,20.77,3.35,8.6,2.55,18.1-2.38,28.51l-12.29,25.92c-3.28,6.92-7.45,12.18-12.49,15.77s-10.78,5.44-17.2,5.56c-6.42.11-13.33-1.58-20.71-5.09l-20.26-9.61Z"/>
    <path d="M1100.59,281.51c-5.94-3.97-10.28-8.73-13-14.26-2.72-5.53-3.75-11.46-3.08-17.76.67-6.31,3.09-12.57,7.24-18.78l15.94-23.85c4.18-6.25,9.05-10.89,14.61-13.9,5.56-3.02,11.42-4.32,17.57-3.92,6.15.4,12.2,2.59,18.14,6.56s10.28,8.73,13,14.26c2.72,5.53,3.75,11.44,3.1,17.74-.66,6.29-3.08,12.56-7.26,18.81l-15.95,23.84c-4.15,6.22-9.02,10.84-14.59,13.87-5.57,3.03-11.44,4.35-17.59,3.94-6.15-.4-12.2-2.59-18.15-6.56ZM1108.36,269.87c5.29,3.54,10.68,4.63,16.19,3.29s10.17-4.87,13.99-10.58l16.48-24.66c3.84-5.75,5.33-11.42,4.45-17-.87-5.58-3.96-10.14-9.24-13.67-5.25-3.51-10.63-4.61-16.14-3.29-5.51,1.31-10.19,4.84-14.04,10.6l-16.48,24.66c-3.82,5.72-5.29,11.38-4.41,16.99s3.95,10.18,9.19,13.68Z"/>
    <path d="M1173.81,336.52l72.7-70.46,9.89,10.2-72.7,70.46-9.89-10.2ZM1180.5,343.42l9.7-9.4,15.95,16.45c5.2,5.36,10.62,8.18,16.27,8.43,5.64.25,11-2.08,16.06-6.99l21.4-20.74c5.07-4.91,7.56-10.19,7.49-15.84-.08-5.65-2.71-11.15-7.91-16.52l-15.95-16.45,9.7-9.4,15.66,16.15c8.53,8.8,12.85,17.81,12.97,27.04.12,9.23-3.96,17.84-12.22,25.86l-20.6,19.96c-5.5,5.33-11.24,8.8-17.22,10.39-5.99,1.6-12,1.33-18.06-.82-6.06-2.14-11.93-6.15-17.61-12.02l-15.61-16.1Z"/>
    <path d="M1234.27,401.39l81.95-59.46,8.34,11.5-81.95,59.46-8.34-11.5ZM1238.32,406.97l10.93-7.93,34.15,47.06-10.93,7.93-34.15-47.06ZM1273.55,381.42l10.94-7.94,29.65,40.87-10.93,7.93-29.65-40.86ZM1309.34,355.45l10.94-7.93,34.15,47.06-10.94,7.93-34.15-47.06Z"/>
    <path d="M1362.85,509.18l14.36,32.03-16.14,7.24c-6.95,3.11-13.62,4.49-20.02,4.13s-12.1-2.32-17.13-5.87c-5.02-3.55-9-8.58-11.92-15.1-2.95-6.57-4.17-12.91-3.69-19.03.48-6.12,2.57-11.63,6.24-16.54,3.68-4.9,8.78-8.82,15.3-11.75l27.26-12.22c6.95-3.12,13.61-4.49,19.98-4.12,6.37.38,12.07,2.33,17.1,5.88,5.03,3.55,9,8.58,11.93,15.1,2.41,5.38,3.47,10.8,3.16,16.25-.3,5.45-1.83,10.6-4.59,15.45s-6.66,9.04-11.69,12.56l-6.3-14.04c4.25-3.33,6.88-7.28,7.89-11.85,1-4.57.63-8.81-1.12-12.7-2.59-5.76-6.66-9.48-12.22-11.16-5.56-1.68-11.62-1.05-18.19,1.9l-27.26,12.22c-6.02,2.7-10.04,6.64-12.06,11.82s-1.73,10.7.89,16.54c2.58,5.76,6.56,9.52,11.93,11.29,5.37,1.76,11.47,1.12,18.29-1.94l4-1.79-8.4-18.74,12.39-5.56Z"/>
    <path d="M1333.5,580.57l97.58-27.27,3.82,13.68-97.58,27.26-3.82-13.68ZM1348.83,635.43l38.02-34.7,6.89,12.75-40.38,38.18-4.53-16.23ZM1376.41,575.01l13.01-3.63,9.29,33.27c1.11,3.98,3.39,6.79,6.84,8.43,3.45,1.63,7.45,1.82,12.01.54,4.56-1.27,7.89-3.51,9.98-6.69,2.1-3.19,2.59-6.78,1.48-10.75l-9.29-33.27,13.01-3.63,9.14,32.73c1.59,5.68,1.8,10.97.64,15.87-1.16,4.9-3.51,9.12-7.06,12.64-3.55,3.52-8.16,6.08-13.84,7.67-5.63,1.57-10.89,1.76-15.78.58-4.89-1.19-9.09-3.57-12.62-7.14-3.53-3.57-6.09-8.19-7.67-13.87l-9.14-32.73Z"/>
    <path d="M1354.08,653.96l105.16,24.18,1.53,12.02-95.69,49.86-1.94-15.19,77.46-38.2-84.58-17.47-1.94-15.2ZM1378.29,668.2l13.4-1.71,6.76,52.84-13.4,1.71-6.76-52.84Z"/>
    <path d="M1363.3,779.85c.12-7.05,1.78-13.2,5-18.44,3.22-5.24,7.68-9.28,13.39-12.11,5.71-2.83,12.35-4.18,19.91-4.06l27.78.45c7.61.13,14.23,1.7,19.84,4.71s9.95,7.19,12.99,12.54c3.05,5.34,4.51,11.54,4.4,18.6-.09,5.85-1.44,11.18-4.02,15.99s-6.15,8.82-10.71,12.01c-4.55,3.2-9.86,5.33-15.91,6.39l.24-14.55c3.26-.83,6.13-2.26,8.6-4.28,2.47-2.03,4.4-4.42,5.79-7.19,1.39-2.76,2.11-5.63,2.16-8.6.1-6.22-2.01-11.26-6.34-15.11-4.33-3.85-10.08-5.84-17.28-5.95l-27.78-.45c-7.2-.12-13.01,1.68-17.43,5.4-4.43,3.71-6.69,8.68-6.79,14.9-.07,4.41,1.25,8.59,3.98,12.53,2.72,3.94,6.69,6.63,11.92,8.06l-.24,14.55c-6.02-1.25-11.25-3.57-15.69-6.94-4.45-3.37-7.89-7.48-10.31-12.35-2.43-4.87-3.6-10.23-3.5-16.08Z"/>
    <path d="M1460.72,856.03l-100.64-11.02,1.55-14.12,100.64,11.02-1.55,14.12Z"/>
    <path d="M1360.13,856.5l91.02,57.95-2.57,11.84-106.86,14.99,3.25-14.97,85.77-10.09-73.87-44.75,3.25-14.97ZM1378.19,878.02l13.2,2.86-11.3,52.06-13.2-2.86,11.3-52.06Z"/>
  </g>
  <g>
    <path d="M496.49,1185.73c1.5,2.68,3.16,4.6,4.98,5.76s3.79,1.51,5.91,1.02c2.12-.48,3.78-1.64,4.95-3.49.84-1.3,1.34-2.94,1.52-4.91.18-1.97-.04-5.44-.66-10.42s-.87-9.11-.77-12.42c.1-3.3,1.14-6.5,3.12-9.6,2.46-3.86,5.63-6.25,9.49-7.17,3.86-.93,7.66-.19,11.41,2.21,2.06,1.32,4.2,3.54,6.41,6.67l-3.98,6.24c-.07-.08-.12-.18-.17-.28-.22-.56-.78-1.56-1.7-3.01-.91-1.44-2-2.56-3.25-3.36-2.04-1.3-4.15-1.7-6.33-1.18-2.18.52-3.95,1.83-5.31,3.95-.94,1.47-1.47,3.04-1.6,4.72-.13,1.68,0,4.16.39,7.44l1,8.74c.39,3.39.43,6.29.12,8.7-.31,2.4-1.28,4.88-2.92,7.44-2.41,3.78-5.48,6.15-9.19,7.11-3.71.96-7.32.31-10.82-1.92-2.45-1.56-4.53-3.75-6.25-6.58l3.62-5.66Z"/>
    <path d="M498.07,1159.42c-8.12,10.61-14.42,16.69-18.89,18.21-4.47,1.52-9.11.45-13.89-3.21-5.48-4.19-7.78-8.72-6.92-13.59s4.77-11.85,11.72-20.93c6.22-8.14,10.94-13.47,14.16-16,3.21-2.53,6.38-3.78,9.5-3.74,3.12.03,6.38,1.35,9.79,3.95,3.51,2.69,5.67,5.43,6.49,8.22.82,2.8.51,6.08-.93,9.85-1.44,3.77-5.11,9.51-11.02,17.24ZM478.2,1143.61c-7.1,9.29-10.94,15.44-11.52,18.46s.22,5.36,2.4,7.04c2.57,1.96,5.33,2,8.28.1s6.81-5.95,11.57-12.16l2.05-2.68c5.3-6.93,8.79-12.29,10.45-16.06,1.67-3.78,1.03-6.78-1.9-9.02-1.8-1.37-4.02-1.66-6.68-.85-2.65.81-7.08,5.27-13.28,13.38l-1.38,1.8Z"/>
    <path d="M465.75,1092.39l16.51,14.97-41.38,45.63-6.16-5.59,36.73-40.51-10.35-9.39,4.65-5.12Z"/>
    <path d="M437.95,1063.41l5.49,5.84-7.33,9.99,8.93,9.49,10.44-6.68,5.42,5.76-53.98,32.52-4.67-4.97,35.69-51.96ZM432.33,1084.31l-17.58,23.97.14.15,24.8-16.29-7.35-7.82Z"/>
    <path d="M366.57,1058.83c.44,3.04,1.3,5.43,2.59,7.16,1.28,1.74,3,2.77,5.15,3.08,2.16.31,4.11-.18,5.88-1.48,1.24-.92,2.3-2.26,3.17-4.04.87-1.78,1.91-5.1,3.12-9.97,1.21-4.87,2.45-8.83,3.73-11.87,1.28-3.05,3.4-5.66,6.35-7.85,3.68-2.72,7.49-3.82,11.43-3.3,3.93.52,7.22,2.57,9.86,6.15,1.46,1.97,2.65,4.81,3.59,8.53l-5.95,4.4c-.03-.1-.05-.21-.05-.32,0-.6-.17-1.74-.51-3.41-.34-1.68-.94-3.11-1.83-4.31-1.44-1.94-3.26-3.06-5.49-3.37-2.23-.3-4.35.3-6.37,1.79-1.4,1.04-2.46,2.31-3.18,3.83-.72,1.52-1.48,3.88-2.29,7.08l-2.19,8.53c-.85,3.31-1.85,6.02-3,8.16-1.15,2.14-2.95,4.11-5.39,5.9-3.61,2.66-7.31,3.78-11.12,3.35-3.81-.44-6.95-2.33-9.42-5.67-1.72-2.33-2.88-5.12-3.48-8.37l5.4-4Z"/>
    <path d="M389.24,997.17c2.33,1.47,4.16,3.25,5.48,5.35,2.65,4.2,3.31,8.85,2,13.97-1.32,5.12-7.13,10.92-17.45,17.42-11.19,7.05-19.69,10.26-25.5,9.63-5.81-.62-10.09-3.12-12.84-7.48-1.03-1.63-2.03-3.83-3-6.57l6.38-4.02c.37,1.98.99,3.66,1.87,5.05,1.72,2.73,4.57,4.19,8.56,4.38,3.99.19,10.07-2.28,18.23-7.42,4.86-3.06,8.53-5.67,11.01-7.82,2.48-2.15,4.05-4.5,4.71-7.05.66-2.56.26-4.99-1.2-7.31-.86-1.36-2.34-2.77-4.44-4.23l6.18-3.89Z"/>
    <path d="M372.91,964.31l4.01,7.64-21.12,21.98.34.64,25.6-13.44,3.86,7.36-54.54,28.62-5.35-10.19c-4.36-8.3-1.88-14.9,7.42-19.78,4.22-2.22,7.73-3.27,10.51-3.17,2.78.1,5.44,1.25,7.98,3.45l21.28-23.12ZM351.13,997.21c-1.55-2.82-3.32-4.53-5.28-5.12-1.96-.59-4.66.02-8.09,1.82-3.28,1.72-5.32,3.53-6.11,5.42-.79,1.89-.45,4.23,1.01,7.03l.22.43,18.24-9.57Z"/>
    <path d="M312.98,980.91l-3.38-7.6,56.27-25.06,3.38,7.6-56.27,25.06Z"/>
    <path d="M303.52,958.97l-4.72-12.75c-3.06-8.28.86-14.44,11.77-18.48,4.35-1.61,8.05-2.14,11.09-1.6,3.04.54,5.28,1.79,6.75,3.74,1.46,1.96,3.01,5.05,4.65,9.29l25.35-9.38,2.89,7.8-57.77,21.38ZM327.03,941.4c-1.22-3.29-2.76-5.41-4.61-6.34-1.86-.93-4.8-.65-8.82.84-4.05,1.5-6.57,3.14-7.56,4.91-.99,1.78-.81,4.5.54,8.16l20.45-7.57Z"/>
    <path d="M290.57,896.73l2.6,9.06,52.46-15.08,2.29,7.99-52.46,15.08,2.59,9.01-6.74,1.94-7.49-26.07,6.74-1.94Z"/>
    <path d="M321.29,848.9c10.08-2.03,16.03,1.47,17.86,10.5,2.01,9.92-2,15.89-12.01,17.92l-46.11,9.32-1.63-8.06,42.7-8.63c4.58-.93,7.67-1.96,9.26-3.11,1.6-1.14,2.12-3.05,1.59-5.7s-1.8-4.13-3.78-4.41c-1.98-.29-5.33.04-10.04.99l-42.23,8.53-1.63-8.05,46.02-9.31Z"/>
    <path d="M330.92,808.27l.99,8.57-27.62,12.89.08.72,28.73-3.31.95,8.26-61.19,7.05-1.32-11.43c-1.07-9.32,3.61-14.58,14.05-15.78,4.74-.54,8.39-.27,10.95.83,2.56,1.1,4.63,3.14,6.2,6.1l28.19-13.9ZM298.75,831.11c-.43-3.2-1.46-5.42-3.08-6.68-1.62-1.26-4.35-1.67-8.19-1.22-3.68.42-6.23,1.37-7.65,2.85s-1.95,3.78-1.59,6.92l.05.48,20.46-2.36Z"/>
    <path d="M329.48,769.06l.25,8.01-12.11,2.63.4,13.04,12.25,1.9.25,7.91-61.98-11.39-.21-6.81,61.15-15.29ZM311.41,781l-29.04,6.32v.19s29.38,4.22,29.38,4.22l-.33-10.73Z"/>
    <path d="M313.31,728.49l-1.2,15.71-6.03-.46,1.2-15.72,6.03.47Z"/>
    <path d="M285.66,674.97c-1.9,2.41-3.04,4.68-3.42,6.81-.38,2.13.06,4.08,1.32,5.86,1.26,1.78,2.96,2.86,5.12,3.24,1.52.27,3.23.11,5.12-.48,1.89-.59,5.01-2.13,9.37-4.6,4.36-2.48,8.09-4.31,11.18-5.47,3.09-1.17,6.45-1.44,10.07-.8,4.51.8,7.93,2.8,10.26,6.02,2.33,3.21,3.11,7.01,2.33,11.38-.43,2.42-1.67,5.24-3.71,8.48l-7.28-1.29c.05-.09.11-.18.19-.26.44-.41,1.14-1.32,2.13-2.71.98-1.4,1.6-2.83,1.86-4.29.42-2.38-.02-4.48-1.34-6.3-1.32-1.82-3.21-2.95-5.69-3.38-1.71-.3-3.37-.19-4.97.33-1.6.52-3.84,1.59-6.71,3.21l-7.69,4.27c-2.99,1.67-5.65,2.81-7.98,3.45-2.34.63-5,.68-7.99.16-4.41-.78-7.78-2.71-10.08-5.76-2.31-3.06-3.1-6.64-2.38-10.73.51-2.86,1.73-5.62,3.68-8.29l6.62,1.17Z"/>
    <path d="M310.5,666.63c-12.92-3.43-20.94-6.92-24.06-10.47s-3.91-8.23-2.36-14.06c1.77-6.67,5.07-10.53,9.91-11.6,4.83-1.07,12.77-.13,23.82,2.8,9.9,2.63,16.63,4.94,20.2,6.94,3.57,2,5.93,4.44,7.1,7.34,1.17,2.89,1.2,6.41.1,10.55-1.14,4.27-2.84,7.32-5.1,9.16-2.27,1.83-5.42,2.8-9.45,2.92-4.03.11-10.74-1.08-20.15-3.58ZM317.48,642.23c-11.3-3-18.45-4.19-21.47-3.57-3.01.62-4.87,2.26-5.58,4.91-.83,3.12.2,5.69,3.08,7.69,2.88,2,8.1,4.01,15.67,6.02l3.27.87c8.43,2.24,14.71,3.4,18.84,3.49,4.12.1,6.66-1.64,7.61-5.2.58-2.19,0-4.35-1.77-6.49-1.76-2.14-7.58-4.52-17.44-7.14l-2.19-.58Z"/>
    <path d="M360.13,610.9l-7.53,20.97-57.97-20.82,2.81-7.83,51.47,18.49,4.72-13.15,6.51,2.34Z"/>
    <path d="M376.31,574.23l-3.31,7.3-12.03-2.97-5.38,11.87,10.16,7.11-3.26,7.21-50.64-37.51,2.81-6.21,61.64,13.19ZM354.83,577l-28.86-7.12-.08.18,24.51,16.71,4.43-9.77Z"/>
    <path d="M386.66,513.43c6.03,3.74,10.07,7.66,12.13,11.78,2.06,4.12,1.47,8.78-1.75,13.99-2.89,4.66-6.69,6.96-11.42,6.91s-11.98-3.1-21.76-9.16c-1.15-.71-4.14-2.73-8.96-6.06s-7.97-5.78-9.43-7.35c-1.47-1.57-2.62-3.4-3.45-5.46-.82-2.06-1.08-4.2-.76-6.39.32-2.19,1.2-4.46,2.64-6.78,2.04-3.29,4.79-5.51,8.25-6.67,3.46-1.15,6.9-.84,10.31.93l-1.7,8.16c-5.38-2.57-9.1-2.2-11.15,1.11-1.58,2.55-1.37,5.13.63,7.76,2,2.62,6.02,5.81,12.08,9.56l2.67,1.65c3.51,2.17,6.93,4.14,10.25,5.9s5.79,3,7.39,3.72,3.02,1.06,4.27,1,2.23-.33,2.95-.82,1.36-1.18,1.92-2.08c1.05-1.7,1.35-3.34.88-4.91-.46-1.58-1.57-3.15-3.3-4.72s-4.96-3.81-9.68-6.73l-3.97,6.41-6.17-3.82,8.3-13.4,8.84,5.47Z"/>
    <path d="M426.38,496.24l-5.14,6.93-28.96-9.49-.43.58,23.21,17.24-4.96,6.68-49.45-36.72,6.86-9.24c5.59-7.53,12.61-8.16,21.04-1.9,3.83,2.85,6.3,5.55,7.42,8.1s1.23,5.45.35,8.69l30.07,9.14ZM387.3,490.88c1.87-2.62,2.64-4.95,2.32-6.98-.32-2.03-2.04-4.19-5.14-6.5-2.98-2.21-5.49-3.26-7.53-3.15-2.05.1-4.01,1.42-5.89,3.96l-.29.39,16.54,12.28Z"/>
    <path d="M452.16,466.63l-5.3,6.01-10.63-6.37-8.63,9.78,7.63,9.77-5.24,5.93-37.4-50.72,4.51-5.11,55.05,30.7ZM430.82,462.98l-25.5-15.27-.13.15,18.53,23.17,7.1-8.05Z"/>
    <path d="M433.94,408.17l-6.72,6.62,38.3,38.9-5.92,5.83-38.3-38.9-6.68,6.58-4.92-5,19.33-19.03,4.92,5Z"/>
    <path d="M438.36,394.95l6.26-5.47,40.54,46.38-6.26,5.47-40.54-46.38Z"/>
    <path d="M519.46,408.93l-6.39,4.84-9.16-8.35-10.39,7.88,5.54,11.09-6.31,4.78-26.63-57.11,5.43-4.12,47.9,40.99ZM499.26,401.12l-21.97-20.01-.16.12,13.58,26.38,8.55-6.48Z"/>
    <path d="M543.16,372.31l-13.51,8.11-3.11-5.18,13.51-8.11,3.11,5.18Z"/>
    <path d="M570.73,318.86c-3.07-.15-5.58.23-7.53,1.15-1.95.93-3.29,2.41-4.01,4.46s-.62,4.07.32,6.06c.66,1.4,1.78,2.69,3.35,3.89s4.63,2.86,9.17,4.98,8.18,4.11,10.93,5.96c2.74,1.84,4.9,4.43,6.47,7.75,1.96,4.14,2.3,8.09,1.03,11.85s-3.92,6.59-7.94,8.49c-2.22,1.05-5.23,1.67-9.06,1.88l-3.16-6.69c.1-.01.21-.01.32,0,.59.12,1.74.17,3.45.16,1.71,0,3.23-.32,4.57-.96,2.19-1.04,3.64-2.61,4.37-4.74.72-2.13.55-4.33-.53-6.6-.74-1.57-1.79-2.86-3.15-3.86-1.35-1-3.52-2.2-6.5-3.62l-7.94-3.8c-3.08-1.47-5.56-2.98-7.42-4.52-1.87-1.54-3.45-3.68-4.75-6.42-1.92-4.06-2.29-7.91-1.13-11.56,1.16-3.66,3.62-6.37,7.38-8.14,2.62-1.24,5.59-1.84,8.89-1.79l2.87,6.07Z"/>
    <path d="M592.14,334.2c-4.66-12.53-6.45-21.09-5.36-25.69,1.09-4.6,4.46-7.94,10.11-10.05,6.47-2.4,11.53-1.94,15.19,1.38,3.67,3.33,7.49,10.35,11.48,21.07,3.57,9.6,5.57,16.43,6.01,20.5.43,4.06-.2,7.41-1.89,10.03s-4.54,4.68-8.56,6.18c-4.14,1.54-7.61,1.91-10.41,1.12-2.81-.79-5.42-2.8-7.84-6.02-2.42-3.23-5.33-9.39-8.72-18.51ZM616.1,325.79c-4.08-10.95-7.24-17.48-9.49-19.58-2.25-2.1-4.66-2.67-7.24-1.71-3.03,1.13-4.53,3.45-4.5,6.96s1.41,8.93,4.14,16.26l1.18,3.17c3.04,8.17,5.72,13.98,8.03,17.4,2.31,3.42,5.19,4.48,8.64,3.2,2.12-.79,3.55-2.52,4.27-5.2.73-2.68-.69-8.8-4.25-18.37l-.79-2.13Z"/>
    <path d="M666.1,342.55l-21.47,5.98-16.53-59.33,8.01-2.23,14.67,52.68,13.46-3.75,1.86,6.66Z"/>
    <path d="M705.47,334.54l-7.87,1.53-4.53-11.53-12.8,2.48.07,12.4-7.77,1.5,1.34-63,6.69-1.3,24.86,57.93ZM690.8,318.62l-10.87-27.67-.2.04.53,29.67,10.53-2.04Z"/>
    <path d="M749.62,275.59l-14.13,1.02,1.4,19.38,12.63-.91.51,6.99-12.64.91,2.03,28.07-8.2.59-4.43-61.43,22.33-1.61.5,6.99Z"/>
    <path d="M762.6,268.31l8.31-.13,1,61.59-8.31.13-1-61.59Z"/>
    <path d="M787.41,268.25l11.97.66c5.66.31,10.01,2.69,13.05,7.13,3.03,4.44,4.22,12.56,3.57,24.34-.62,11.36-2.5,19.3-5.62,23.81-3.12,4.5-8.4,6.56-15.83,6.15l-10.52-.58,3.38-61.51ZM795.37,275.03l-2.69,48.95c3.48.19,6.15-.3,8.02-1.49,1.87-1.19,3.35-3.51,4.43-6.98,1.08-3.46,1.81-8.7,2.2-15.71.49-8.94,0-15.23-1.46-18.87-1.46-3.63-4.59-5.58-9.39-5.84l-1.11-.06Z"/>
    <path d="M845.85,335.61l-22.09-3,8.27-61.04,21.7,2.94-.94,6.95-13.56-1.84-2.62,19.36,12.55,1.7-.94,6.95-12.55-1.7-2.85,21.04,13.94,1.89-.91,6.76Z"/>
    <path d="M888.6,325.86l-15.33-3.65,1.4-5.88,15.33,3.65-1.4,5.88Z"/>
    <path d="M963.87,314.11c-1.99-2.34-4-3.9-6.01-4.69s-4.01-.74-6,.15-3.38,2.34-4.18,4.38c-.56,1.44-.74,3.14-.53,5.11.21,1.97,1.1,5.33,2.67,10.09,1.57,4.77,2.63,8.77,3.17,12.04.54,3.26.15,6.6-1.2,10.03-1.67,4.26-4.31,7.22-7.91,8.88-3.61,1.66-7.48,1.67-11.62.05-2.28-.9-4.81-2.66-7.58-5.3l2.69-6.89c.08.07.15.15.22.24.32.51,1.07,1.38,2.25,2.62,1.17,1.24,2.46,2.13,3.84,2.67,2.25.88,4.4.86,6.44-.07s3.52-2.57,4.44-4.91c.63-1.62.85-3.27.65-4.94s-.81-4.08-1.83-7.21l-2.68-8.38c-1.04-3.25-1.65-6.09-1.81-8.51-.16-2.42.31-5.04,1.42-7.87,1.63-4.17,4.17-7.09,7.63-8.76,3.45-1.66,7.12-1.74,10.99-.22,2.7,1.06,5.17,2.8,7.4,5.24l-2.45,6.25Z"/>
    <path d="M967.36,340.19c5.91-11.99,10.91-19.16,15-21.53,4.09-2.37,8.84-2.22,14.25.45,6.19,3.05,9.33,7.05,9.42,12,.09,4.95-2.38,12.55-7.44,22.81-4.53,9.19-8.12,15.33-10.78,18.44s-5.53,4.94-8.59,5.52c-3.07.57-6.52-.09-10.37-1.99-3.96-1.95-6.62-4.22-7.97-6.81-1.35-2.59-1.68-5.87-1-9.84.68-3.97,3.17-10.32,7.47-19.05ZM989.92,351.84c5.16-10.49,7.74-17.27,7.73-20.35-.02-3.08-1.26-5.23-3.72-6.44-2.9-1.43-5.62-.93-8.15,1.5-2.53,2.43-5.53,7.16-8.99,14.18l-1.5,3.03c-3.86,7.83-6.24,13.75-7.14,17.78-.9,4.03.3,6.85,3.61,8.48,2.03,1,4.27.84,6.72-.47,2.45-1.3,5.92-6.54,10.44-15.69l1.01-2.03Z"/>
    <path d="M1012.15,399.74l-19.09-11.5,31.79-52.76,7.12,4.29-28.22,46.84,11.97,7.21-3.57,5.92Z"/>
    <path d="M1048.3,407.14c-5.92,8.41-12.64,9.97-20.18,4.66-8.28-5.82-9.48-12.91-3.6-21.27l27.06-38.48,6.72,4.73-25.06,35.63c-2.69,3.82-4.22,6.7-4.59,8.62-.37,1.93.55,3.67,2.77,5.23,2.21,1.56,4.14,1.76,5.78.61,1.64-1.16,3.84-3.69,6.6-7.62l24.78-35.24,6.72,4.73-27.01,38.4Z"/>
    <path d="M1098.03,397.27c-1.16-2.84-2.57-4.95-4.23-6.33s-3.58-1.96-5.74-1.74c-2.16.21-3.95,1.16-5.35,2.85-.99,1.19-1.69,2.76-2.11,4.69-.42,1.94-.63,5.41-.64,10.43s-.26,9.15-.77,12.42c-.51,3.26-1.94,6.31-4.28,9.14-2.92,3.52-6.36,5.51-10.3,5.95-3.94.44-7.63-.76-11.05-3.6-1.89-1.57-3.73-4.04-5.53-7.42l4.72-5.69c.05.08.1.18.13.3.15.58.58,1.64,1.31,3.19.73,1.54,1.66,2.79,2.8,3.74,1.86,1.54,3.91,2.19,6.14,1.95,2.23-.24,4.15-1.33,5.76-3.27,1.11-1.34,1.83-2.83,2.17-4.48.33-1.65.51-4.12.53-7.42l.08-8.8c.03-3.42.35-6.29.95-8.64s1.88-4.69,3.81-7.02c2.86-3.45,6.19-5.43,9.99-5.92,3.8-.5,7.3.58,10.51,3.24,2.23,1.85,4.03,4.28,5.39,7.29l-4.29,5.17Z"/>
    <path d="M1102.84,475.37c-2.58-.96-4.73-2.34-6.45-4.13-3.44-3.58-5.03-8-4.78-13.28.25-5.27,4.78-12.14,13.57-20.59,9.53-9.17,17.21-14.03,23.02-14.59,5.82-.56,10.51,1.02,14.08,4.74,1.34,1.39,2.76,3.34,4.26,5.83l-5.44,5.23c-.76-1.86-1.71-3.38-2.85-4.57-2.23-2.33-5.32-3.17-9.27-2.56s-9.4,4.27-16.35,10.96c-4.14,3.98-7.21,7.27-9.2,9.88-1.99,2.6-3.05,5.23-3.18,7.85-.13,2.63.75,4.93,2.65,6.91,1.12,1.16,2.85,2.24,5.2,3.25l-5.26,5.06Z"/>
    <path d="M1156.08,444.3l5.24,6.45-18.62,15.11,8.07,9.95,18.62-15.11,5.24,6.46-47.83,38.81-5.24-6.45,23.76-19.29-8.07-9.95-23.76,19.29-5.24-6.46,47.83-38.81Z"/>
    <path d="M1148.14,536.86l-4.86-7.13,18.46-24.25-.41-.6-23.9,16.28-4.68-6.87,50.91-34.67,6.48,9.51c5.28,7.76,3.58,14.59-5.11,20.5-3.94,2.69-7.3,4.14-10.08,4.35-2.78.21-5.55-.62-8.33-2.52l-18.5,25.41ZM1166.01,501.69c1.87,2.63,3.81,4.12,5.83,4.49,2.02.36,4.63-.55,7.83-2.73,3.06-2.08,4.88-4.11,5.45-6.08.57-1.97-.03-4.26-1.81-6.87l-.27-.4-17.02,11.59Z"/>
    <path d="M1205.86,513.65l4.23,7.16-53.04,31.33-4.23-7.16,53.04-31.33Z"/>
    <path d="M1219.92,556.06c.05-3.07-.41-5.56-1.4-7.48-.99-1.93-2.52-3.22-4.59-3.87-2.07-.65-4.09-.48-6.04.51-1.37.71-2.64,1.86-3.78,3.48-1.15,1.61-2.71,4.72-4.68,9.33-1.98,4.61-3.84,8.31-5.59,11.12s-4.27,5.04-7.54,6.72c-4.08,2.09-8.01,2.56-11.81,1.41-3.8-1.14-6.71-3.7-8.74-7.66-1.12-2.18-1.84-5.18-2.17-8.99l6.58-3.38c.02.1.02.21,0,.33-.09.59-.11,1.74-.05,3.45.06,1.71.43,3.22,1.11,4.54,1.11,2.15,2.73,3.55,4.88,4.21,2.15.65,4.34.41,6.58-.74,1.55-.79,2.8-1.88,3.76-3.27s2.09-3.59,3.41-6.62l3.54-8.05c1.37-3.13,2.8-5.65,4.28-7.57s3.57-3.57,6.27-4.96c3.99-2.05,7.83-2.55,11.52-1.51,3.69,1.04,6.48,3.42,8.38,7.11,1.32,2.58,2.02,5.52,2.08,8.82l-5.98,3.06Z"/>
    <path d="M1236.15,590.53l-3.71-8.67-50.19,21.46-3.27-7.65,50.19-21.46-3.69-8.62,6.45-2.76,10.66,24.94-6.45,2.76Z"/>
    <path d="M1211.59,641.81c-9.75,3.27-16.09.53-19.02-8.2-3.22-9.6.02-16.02,9.71-19.27l44.6-14.96,2.61,7.79-41.3,13.85c-4.43,1.48-7.37,2.89-8.81,4.23s-1.73,3.28-.87,5.85c.86,2.57,2.29,3.88,4.3,3.92,2,.04,5.28-.7,9.84-2.23l40.84-13.7,2.62,7.79-44.51,14.93Z"/>
    <path d="M1257.5,663.44c.76-2.98.87-5.52.35-7.61s-1.72-3.7-3.58-4.81c-1.87-1.11-3.87-1.4-5.99-.88-1.5.37-2.99,1.21-4.48,2.52-1.48,1.31-3.71,3.98-6.69,8.02-2.98,4.03-5.64,7.21-7.99,9.54-2.35,2.33-5.3,3.94-8.87,4.82-4.44,1.1-8.39.66-11.82-1.33-3.44-1.99-5.69-5.14-6.76-9.46-.59-2.38-.61-5.46-.05-9.25l7.18-1.78c0,.1-.03.21-.07.31-.23.56-.51,1.67-.84,3.35-.33,1.68-.32,3.23.04,4.67.58,2.35,1.84,4.09,3.78,5.21,1.94,1.13,4.13,1.39,6.57.79,1.69-.42,3.16-1.19,4.41-2.33,1.25-1.13,2.86-3.02,4.83-5.66l5.29-7.03c2.05-2.73,4.01-4.86,5.9-6.39,1.88-1.53,4.29-2.66,7.24-3.39,4.35-1.08,8.2-.69,11.56,1.16,3.35,1.86,5.53,4.81,6.53,8.84.7,2.82.7,5.84,0,9.07l-6.52,1.62Z"/>
    <path d="M1230.78,714.73l-2.26-15.6,5.98-.87,2.26,15.6-5.98.87Z"/>
    <path d="M1269.45,760.8c1.33-2.77,1.94-5.24,1.84-7.39-.1-2.16-.95-3.97-2.57-5.43-1.61-1.46-3.51-2.14-5.7-2.04-1.54.07-3.17.61-4.89,1.59-1.71.99-4.43,3.17-8.14,6.55-3.71,3.37-6.95,5.96-9.71,7.78-2.76,1.82-5.97,2.82-9.65,2.98-4.57.21-8.35-1-11.33-3.62-2.98-2.62-4.57-6.16-4.77-10.6-.11-2.45.48-5.48,1.77-9.08l7.39-.34c-.03.1-.07.2-.13.3-.33.5-.82,1.54-1.48,3.12-.65,1.57-.95,3.11-.88,4.59.11,2.41,1.01,4.37,2.69,5.86,1.68,1.48,3.78,2.17,6.29,2.06,1.74-.08,3.33-.55,4.77-1.41,1.44-.87,3.39-2.4,5.85-4.6l6.57-5.86c2.55-2.27,4.89-3.97,7.04-5.1,2.15-1.13,4.73-1.76,7.76-1.9,4.48-.21,8.18.93,11.1,3.42,2.92,2.48,4.48,5.79,4.67,9.95.13,2.9-.46,5.86-1.77,8.89l-6.71.31Z"/>
    <path d="M1247.05,774.4c13.36.5,21.95,2.13,25.78,4.9s5.63,7.17,5.41,13.19c-.26,6.89-2.62,11.4-7.1,13.5s-12.43,2.95-23.85,2.52c-10.24-.38-17.31-1.15-21.24-2.31-3.92-1.16-6.77-3.03-8.54-5.59-1.77-2.57-2.58-5.99-2.42-10.28.16-4.41,1.15-7.76,2.96-10.05s4.67-3.93,8.57-4.93c3.91-1.01,10.72-1.32,20.44-.96ZM1245.62,799.75c11.68.44,18.92.02,21.73-1.25,2.8-1.27,4.25-3.28,4.36-6.02.12-3.23-1.45-5.5-4.7-6.82s-8.79-2.13-16.61-2.42l-3.38-.12c-8.72-.33-15.1-.08-19.15.74-4.04.82-6.13,3.08-6.27,6.76-.08,2.26.97,4.24,3.16,5.94,2.19,1.7,8.39,2.74,18.59,3.12l2.27.08Z"/>
    <path d="M1210.99,839.63l2.69-22.13,61.15,7.43-1,8.25-54.28-6.59-1.69,13.87-6.86-.84Z"/>
    <path d="M1269.77,860.75l-1.49,8.18-60.6-11.07,1.5-8.18,60.59,11.07Z"/>
    <path d="M1260.23,904.49l-3.43,11.49c-1.63,5.44-4.95,9.11-9.98,11.02s-13.2,1.18-24.5-2.2c-10.9-3.25-18.18-6.93-21.84-11.01-3.66-4.09-4.42-9.69-2.29-16.83l3.02-10.1,59.02,17.63ZM1251.78,910.64l-46.98-14.04c-1,3.34-1.14,6.06-.42,8.16.72,2.1,2.63,4.08,5.75,5.93s8.04,3.79,14.77,5.8c8.59,2.57,14.81,3.56,18.69,2.99,3.87-.58,6.49-3.17,7.87-7.77l.32-1.07Z"/>
    <path d="M1181.13,945.42l8.07-20.78,57.42,22.31-7.93,20.41-6.54-2.54,4.96-12.75-18.21-7.08-4.59,11.81-6.54-2.54,4.59-11.81-19.78-7.68-5.1,13.11-6.35-2.46Z"/>
    <path d="M1205.87,966.39c12,5.88,19.19,10.86,21.57,14.96,2.37,4.09,2.23,8.83-.42,14.25-3.04,6.19-7.03,9.35-11.97,9.45-4.95.11-12.56-2.36-22.82-7.38-9.2-4.51-15.35-8.09-18.46-10.74-3.11-2.66-4.96-5.52-5.53-8.58s.08-6.53,1.96-10.37c1.94-3.97,4.21-6.63,6.79-7.98,2.58-1.36,5.86-1.7,9.84-1.02,3.97.67,10.33,3.15,19.06,7.42ZM1194.27,988.98c10.5,5.14,17.28,7.7,20.36,7.68,3.08-.02,5.22-1.27,6.43-3.74,1.42-2.9.91-5.61-1.53-8.14-2.44-2.52-7.17-5.51-14.2-8.95l-3.04-1.49c-7.84-3.84-13.77-6.21-17.8-7.1-4.03-.9-6.85.31-8.47,3.63-1,2.03-.84,4.27.48,6.71,1.31,2.45,6.55,5.91,15.72,10.4l2.04,1Z"/>
    <path d="M1149.73,1045.4c-5.89-3.94-9.8-8-11.71-12.19s-1.17-8.83,2.24-13.91c3.05-4.56,6.93-6.73,11.65-6.52,4.73.21,11.87,3.51,21.44,9.91,1.13.75,4.04,2.88,8.74,6.37,4.7,3.49,7.76,6.05,9.18,7.67,1.42,1.63,2.5,3.49,3.25,5.58.75,2.1.93,4.23.54,6.41s-1.35,4.41-2.87,6.68c-2.15,3.22-4.98,5.34-8.48,6.38-3.5,1.03-6.93.61-10.28-1.29l1.98-8.1c5.29,2.76,9.02,2.52,11.18-.72,1.67-2.49,1.55-5.09-.36-7.77-1.91-2.69-5.82-6.01-11.74-9.97l-2.61-1.74c-3.43-2.29-6.78-4.38-10.05-6.25-3.26-1.87-5.68-3.2-7.25-3.98-1.57-.78-2.99-1.16-4.24-1.14-1.25.01-2.24.25-2.98.71-.74.45-1.4,1.13-1.99,2.02-1.11,1.66-1.46,3.28-1.05,4.87s1.46,3.2,3.14,4.83c1.68,1.63,4.83,3.98,9.44,7.07l4.19-6.27,6.03,4.03-8.76,13.1-8.64-5.78Z"/>
    <path d="M1112.49,1057.48l13.82-17.49,48.32,38.21-5.16,6.52-42.89-33.91-8.67,10.96-5.42-4.29Z"/>
    <path d="M1132.79,1081.58c9.84,9.05,15.31,15.87,16.43,20.47s-.37,9.11-4.45,13.55c-4.67,5.07-9.39,6.96-14.17,5.66-4.77-1.3-11.37-5.82-19.78-13.56-7.54-6.93-12.42-12.12-14.65-15.54-2.23-3.43-3.18-6.7-2.87-9.8.31-3.1,1.93-6.23,4.83-9.39,2.99-3.25,5.92-5.16,8.78-5.72,2.86-.57,6.1.04,9.72,1.81s9.01,5.96,16.17,12.54ZM1115.25,1099.94c8.6,7.91,14.38,12.29,17.34,13.15,2.95.85,5.36.27,7.22-1.75,2.19-2.38,2.47-5.13.85-8.24-1.62-3.12-5.31-7.32-11.07-12.62l-2.49-2.29c-6.42-5.91-11.44-9.86-15.04-11.87-3.61-2-6.66-1.64-9.15,1.07-1.53,1.67-2.02,3.85-1.45,6.57.57,2.72,4.6,7.53,12.12,14.44l1.67,1.54Z"/>
    <path d="M1059.31,1111.08l6.38-5.81,26.6,14.88.54-.48-19.47-21.37,6.15-5.6,41.48,45.53-8.51,7.75c-6.94,6.32-13.94,5.59-21.02-2.18-3.21-3.52-5.12-6.65-5.72-9.37-.61-2.72-.16-5.59,1.32-8.6l-27.75-14.74ZM1096.64,1123.84c-2.34,2.22-3.55,4.35-3.62,6.41-.07,2.05,1.19,4.5,3.8,7.36,2.5,2.74,4.76,4.26,6.79,4.54,2.03.29,4.21-.63,6.55-2.76l.36-.33-13.87-15.23Z"/>
    <path d="M1090.51,1164.86l-6.49,5.2-38.49-48.09,6.49-5.2,38.49,48.09Z"/>
    <path d="M1010.06,1147.41l6.59-4.57,8.79,8.74,10.72-7.42-5.06-11.32,6.51-4.5,24.12,58.22-5.61,3.88-46.07-43.03ZM1029.91,1156.08l21.08,20.95.16-.12-12.42-26.95-8.82,6.11Z"/>
  </g>
</svg>